<svg preserveAspectRatio="none" width="100%" height="100%" overflow="visible" style="display: block;" viewBox="0 0 1320 648" fill="none" xmlns="http://www.w3.org/2000/svg">
<g id="Rectangle 34624328">
<path d="M0 210.462C0 94.2269 94.2269 0 210.462 0H1092C1217.92 0 1320 102.079 1320 228V420C1320 545.921 1217.92 648 1092 648H437.538C195.893 648 0 452.107 0 210.462Z" fill="url(#paint0_linear_0_211)"/>
<path d="M0 210.462C0 94.2269 94.2269 0 210.462 0H1092C1217.92 0 1320 102.079 1320 228V420C1320 545.921 1217.92 648 1092 648H437.538C195.893 648 0 452.107 0 210.462Z" fill="url(#paint1_linear_0_211)"/>
</g>
<defs>
<linearGradient id="paint0_linear_0_211" x1="660" y1="5.8338e-07" x2="653.044" y2="626.444" gradientUnits="userSpaceOnUse">
<stop stop-color="#00031E"/>
<stop offset="0.519231" stop-color="#A4A4A4" stop-opacity="0"/>
<stop offset="1" stop-color="#00031E"/>
</linearGradient>
<linearGradient id="paint1_linear_0_211" x1="1320" y1="324" x2="138.527" y2="305.084" gradientUnits="userSpaceOnUse">
<stop offset="0.0564732" stop-color="#00031E"/>
<stop offset="0.519231" stop-color="#A4A4A4"/>
<stop offset="1" stop-color="#00031E"/>
</linearGradient>
</defs>
</svg>
